{
  "accessors": [
    {
      "bufferView": 2,
      "componentType": 5126,
      "count": 8,
      "max": [
        1.1532000303268433,
        1.0074379444122314,
        1.590230941772461
      ],
      "min": [
        -0.9733499884605408,
        -1.207157015800476,
        -7.999999979801942e-06
      ],
      "type": "VEC3"
    },
    {
      "bufferView": 2,
      "byteOffset": 96,
      "componentType": 5126,
      "count": 8,
      "max": [
        0.0011210000375285745,
        -0.0009500000160187483,
        0.9999989867210388
      ],
      "min": [
        3.000000106112566e-06,
        -1.0,
        5.999999848427251e-05
      ],
      "type": "VEC3"
    },
    {
      "bufferView": 1,
      "componentType": 5126,
      "count": 8,
      "max": [
        0.9900000095367432,
        0.9900000095367432
      ],
      "min": [
        0.009999999776482582,
        0.1534149944782257
      ],
      "type": "VEC2"
    },
    {
      "bufferView": 0,
      "componentType": 5125,
      "count": 12,
      "type": "SCALAR"
    },
    {
      "bufferView": 2,
      "byteOffset": 192,
      "componentType": 5126,
      "count": 11537,
      "max": [
        0.4788619875907898,
        0.3963150084018707,
        1.0564630031585693
      ],
      "min": [
        -0.305076003074646,
        -1.0207860469818115,
        -0.04697500169277191
      ],
      "type": "VEC3"
    },
    {
      "bufferView": 2,
      "byteOffset": 138636,
      "componentType": 5126,
      "count": 11537,
      "max": [
        0.9998794794082642,
        0.9999850988388062,
        0.9999229907989502
      ],
      "min": [
        -0.9999702572822571,
        -0.9999499917030334,
        -0.9999674558639526
      ],
      "type": "VEC3"
    },
    {
      "bufferView": 3,
      "componentType": 5126,
      "count": 11537,
      "max": [
        0.9996337294578552,
        0.9996059536933899,
        0.9999889135360718,
        1.0
      ],
      "min": [
        -0.9996377825737,
        -0.9994735717773438,
        -0.9998852014541626,
        1.0
      ],
      "type": "VEC4"
    },
    {
      "bufferView": 1,
      "byteOffset": 64,
      "componentType": 5126,
      "count": 11537,
      "max": [
        0.9823790192604065,
        0.9900000095367432
      ],
      "min": [
        0.009999999776482582,
        0.009999999776482582
      ],
      "type": "VEC2"
    },
    {
      "bufferView": 0,
      "byteOffset": 48,
      "componentType": 5125,
      "count": 62742,
      "type": "SCALAR"
    }
  ],
  "asset": {
    "extras": {
      "author": "Silas Merlin (https://sketchfab.com/silasmerlin)",
      "license": "CC-BY-4.0 (http://creativecommons.org/licenses/by/4.0/)",
      "source": "https://sketchfab.com/3d-models/street-child-after-fernand-pelez-c157a2316fbc45dfb9f12bea6195e78a",
      "title": "Street Child, After Fernand Pelez"
    },
    "generator": "Sketchfab-12.64.0",
    "version": "2.0"
  },
  "bufferViews": [
    {
      "buffer": 0,
      "byteLength": 251016,
      "name": "floatBufferViews",
      "target": 34963
    },
    {
      "buffer": 0,
      "byteLength": 92360,
      "byteOffset": 251016,
      "byteStride": 8,
      "name": "floatBufferViews",
      "target": 34962
    },
    {
      "buffer": 0,
      "byteLength": 277080,
      "byteOffset": 343376,
      "byteStride": 12,
      "name": "floatBufferViews",
      "target": 34962
    },
    {
      "buffer": 0,
      "byteLength": 184592,
      "byteOffset": 620456,
      "byteStride": 16,
      "name": "floatBufferViews",
      "target": 34962
    }
  ],
  "buffers": [
    {
      "byteLength": 805048,
      "uri": "scene.bin"
    }
  ],
  "images": [
    {
      "uri": "textures/Background_baseColor.png"
    },
    {
      "uri": "textures/Background_metallicRoughness.png"
    },
    {
      "uri": "textures/Volume8_copy001_baseColor.png"
    },
    {
      "uri": "textures/Volume8_copy001_metallicRoughness.png"
    },
    {
      "uri": "textures/Volume8_copy001_normal.png"
    }
  ],
  "materials": [
    {
      "name": "Background",
      "pbrMetallicRoughness": {
        "baseColorTexture": {
          "index": 0
        },
        "metallicFactor": 0.0,
        "metallicRoughnessTexture": {
          "index": 1
        }
      }
    },
    {
      "doubleSided": true,
      "name": "Volume8_copy001",
      "normalTexture": {
        "index": 4
      },
      "pbrMetallicRoughness": {
        "baseColorTexture": {
          "index": 2
        },
        "metallicFactor": 0.0,
        "metallicRoughnessTexture": {
          "index": 3
        },
        "roughnessFactor": 0.8193920783276828
      }
    }
  ],
  "meshes": [
    {
      "name": "Object_0",
      "primitives": [
        {
          "attributes": {
            "NORMAL": 1,
            "POSITION": 0,
            "TEXCOORD_0": 2
          },
          "indices": 3,
          "material": 0,
          "mode": 4
        }
      ]
    },
    {
      "name": "Object_1",
      "primitives": [
        {
          "attributes": {
            "NORMAL": 5,
            "POSITION": 4,
            "TANGENT": 6,
            "TEXCOORD_0": 7
          },
          "indices": 8,
          "material": 1,
          "mode": 4
        }
      ]
    }
  ],
  "nodes": [
    {
      "children": [
        1
      ],
      "matrix": [
        1.0,
        0.0,
        0.0,
        0.0,
        0.0,
        2.220446049250313e-16,
        -1.0,
        0.0,
        0.0,
        1.0,
        2.220446049250313e-16,
        0.0,
        0.0,
        0.0,
        0.0,
        1.0
      ],
      "name": "Sketchfab_model"
    },
    {
      "children": [
        2,
        3
      ],
      "name": "Street child, Fernand Pelez.obj.cleaner.materialmerger.gles"
    },
    {
      "mesh": 0,
      "name": "Object_2"
    },
    {
      "mesh": 1,
      "name": "Object_3"
    }
  ],
  "samplers": [
    {
      "magFilter": 9729,
      "minFilter": 9987,
      "wrapS": 10497,
      "wrapT": 10497
    }
  ],
  "scene": 0,
  "scenes": [
    {
      "name": "Sketchfab_Scene",
      "nodes": [
        0
      ]
    }
  ],
  "textures": [
    {
      "sampler": 0,
      "source": 0
    },
    {
      "sampler": 0,
      "source": 1
    },
    {
      "sampler": 0,
      "source": 2
    },
    {
      "sampler": 0,
      "source": 3
    },
    {
      "sampler": 0,
      "source": 4
    }
  ]
}
